<svg xmlns="http://www.w3.org/2000/svg" xmlns:xlink="http://www.w3.org/1999/xlink" width="1024" zoomAndPan="magnify" viewBox="0 0 768 767.999994" height="1024" preserveAspectRatio="xMidYMid meet" version="1.0"><defs><clipPath id="d2c34f9019"><path d="M 129.058594 129.058594 L 372 129.058594 L 372 423 L 129.058594 423 Z M 129.058594 129.058594 " clip-rule="nonzero"/></clipPath><clipPath id="8d883e6f55"><path d="M 345 129.058594 L 639 129.058594 L 639 372 L 345 372 Z M 345 129.058594 " clip-rule="nonzero"/></clipPath><clipPath id="9457d88818"><path d="M 129.058594 396 L 423 396 L 423 639.058594 L 129.058594 639.058594 Z M 129.058594 396 " clip-rule="nonzero"/></clipPath><clipPath id="5f1e624893"><path d="M 396 345 L 639.058594 345 L 639.058594 639 L 396 639 Z M 396 345 " clip-rule="nonzero"/></clipPath></defs><rect x="-76.8" width="921.6" fill="#ffffff" y="-76.799999" height="921.599993" fill-opacity="1"/><rect x="-76.8" width="921.6" fill="#181819" y="-76.799999" height="921.599993" fill-opacity="1"/><g clip-path="url(#d2c34f9019)"><path fill="#aad4e8" d="M 329.234375 197.855469 L 371.910156 267.40625 C 313.980469 273.371094 268.554688 321.503906 266.839844 380.59375 L 197.855469 422.917969 L 129.058594 380.707031 C 130.792969 245.683594 237.46875 135.960938 371.261719 129.351562 L 329.234375 197.855469 " fill-opacity="1" fill-rule="nonzero"/></g><g clip-path="url(#8d883e6f55)"><path fill="#b5dceb" d="M 570.257812 329.238281 L 500.707031 371.910156 C 494.742188 313.976562 446.613281 268.554688 387.519531 266.835938 L 345.195312 197.855469 L 387.402344 129.058594 C 522.425781 130.792969 632.152344 237.464844 638.761719 371.261719 L 570.257812 329.238281 " fill-opacity="1" fill-rule="nonzero"/></g><g clip-path="url(#9457d88818)"><path fill="#6db5dd" d="M 197.855469 438.875 L 267.40625 396.203125 C 273.371094 454.132812 321.503906 499.558594 380.59375 501.273438 L 422.917969 570.257812 L 380.710938 639.058594 C 245.6875 637.316406 135.960938 530.644531 129.355469 396.851562 L 197.855469 438.875 " fill-opacity="1" fill-rule="nonzero"/></g><g clip-path="url(#5f1e624893)"><path fill="#4da2d1" d="M 438.878906 570.257812 L 396.203125 500.703125 C 454.136719 494.742188 499.558594 446.613281 501.273438 387.519531 L 570.257812 345.195312 L 639.058594 387.402344 C 637.320312 522.429688 530.644531 632.152344 396.855469 638.761719 L 438.878906 570.257812 " fill-opacity="1" fill-rule="nonzero"/></g></svg>